<svg width="136" height="41" viewBox="0 0 136 41" fill="none" xmlns="http://www.w3.org/2000/svg">
<path d="M15.9167 26.5834L30.75 22.6667C31.1667 22.5556 31.4792 22.2987 31.6875 21.8959C31.8958 21.4931 31.9444 21.0834 31.8333 20.6667C31.7222 20.2501 31.4792 19.9376 31.1042 19.7292C30.7292 19.5209 30.3333 19.4723 29.9167 19.5834L25.8333 20.6667L19.1667 14.4167L16.8333 15.0001L20.8333 22.0001L16.8333 23.0001L14.75 21.4167L13.1667 21.8334L15.9167 26.5834ZM34.5 33.8334H7.83333C6.91667 33.8334 6.13194 33.507 5.47917 32.8542C4.82639 32.2015 4.5 31.4167 4.5 30.5001V23.8334C5.41667 23.8334 6.20139 23.507 6.85417 22.8542C7.50694 22.2015 7.83333 21.4167 7.83333 20.5001C7.83333 19.5834 7.50694 18.7987 6.85417 18.1459C6.20139 17.4931 5.41667 17.1667 4.5 17.1667V10.5001C4.5 9.58341 4.82639 8.79869 5.47917 8.14591C6.13194 7.49314 6.91667 7.16675 7.83333 7.16675H34.5C35.4167 7.16675 36.2014 7.49314 36.8542 8.14591C37.5069 8.79869 37.8333 9.58341 37.8333 10.5001V30.5001C37.8333 31.4167 37.5069 32.2015 36.8542 32.8542C36.2014 33.507 35.4167 33.8334 34.5 33.8334ZM34.5 30.5001V10.5001H7.83333V14.7501C8.86111 15.3612 9.67361 16.1737 10.2708 17.1876C10.8681 18.2015 11.1667 19.3056 11.1667 20.5001C11.1667 21.6945 10.8681 22.7987 10.2708 23.8126C9.67361 24.8265 8.86111 25.639 7.83333 26.2501V30.5001H34.5Z" fill="#76D4D6"/>
<path d="M57.38 13.54V15.8H53.66V27.5H50.86V15.8H47.14V13.54H57.38ZM62.223 18.14C62.583 17.5533 63.0496 17.0933 63.623 16.76C64.2096 16.4267 64.8763 16.26 65.623 16.26V19.2H64.883C64.003 19.2 63.3363 19.4067 62.883 19.82C62.443 20.2333 62.223 20.9533 62.223 21.98V27.5H59.423V16.42H62.223V18.14ZM66.7889 21.92C66.7889 20.8 67.0089 19.8067 67.4489 18.94C67.9022 18.0733 68.5089 17.4067 69.2689 16.94C70.0422 16.4733 70.9022 16.24 71.8489 16.24C72.6756 16.24 73.3956 16.4067 74.0089 16.74C74.6356 17.0733 75.1356 17.4933 75.5089 18V16.42H78.3289V27.5H75.5089V25.88C75.1489 26.4 74.6489 26.8333 74.0089 27.18C73.3822 27.5133 72.6556 27.68 71.8289 27.68C70.8956 27.68 70.0422 27.44 69.2689 26.96C68.5089 26.48 67.9022 25.8067 67.4489 24.94C67.0089 24.06 66.7889 23.0533 66.7889 21.92ZM75.5089 21.96C75.5089 21.28 75.3756 20.7 75.1089 20.22C74.8422 19.7267 74.4822 19.3533 74.0289 19.1C73.5756 18.8333 73.0889 18.7 72.5689 18.7C72.0489 18.7 71.5689 18.8267 71.1289 19.08C70.6889 19.3333 70.3289 19.7067 70.0489 20.2C69.7822 20.68 69.6489 21.2533 69.6489 21.92C69.6489 22.5867 69.7822 23.1733 70.0489 23.68C70.3289 24.1733 70.6889 24.5533 71.1289 24.82C71.5822 25.0867 72.0622 25.22 72.5689 25.22C73.0889 25.22 73.5756 25.0933 74.0289 24.84C74.4822 24.5733 74.8422 24.2 75.1089 23.72C75.3756 23.2267 75.5089 22.64 75.5089 21.96ZM85.6836 24.92L88.4836 16.42H91.4636L87.3636 27.5H83.9636L79.8836 16.42H82.8836L85.6836 24.92ZM103.336 21.72C103.336 22.12 103.31 22.48 103.256 22.8H95.1563C95.2229 23.6 95.5029 24.2267 95.9963 24.68C96.4896 25.1333 97.0963 25.36 97.8163 25.36C98.8563 25.36 99.5963 24.9133 100.036 24.02H103.056C102.736 25.0867 102.123 25.9667 101.216 26.66C100.31 27.34 99.1963 27.68 97.8763 27.68C96.8096 27.68 95.8496 27.4467 94.9963 26.98C94.1563 26.5 93.4963 25.8267 93.0163 24.96C92.5496 24.0933 92.3162 23.0933 92.3162 21.96C92.3162 20.8133 92.5496 19.8067 93.0163 18.94C93.4829 18.0733 94.1363 17.4067 94.9763 16.94C95.8163 16.4733 96.7829 16.24 97.8763 16.24C98.9296 16.24 99.8696 16.4667 100.696 16.92C101.536 17.3733 102.183 18.02 102.636 18.86C103.103 19.6867 103.336 20.64 103.336 21.72ZM100.436 20.92C100.423 20.2 100.163 19.6267 99.6563 19.2C99.1496 18.76 98.5296 18.54 97.7963 18.54C97.1029 18.54 96.5163 18.7533 96.0363 19.18C95.5696 19.5933 95.2829 20.1733 95.1763 20.92H100.436ZM108.18 12.7V27.5H105.38V12.7H108.18ZM112.366 15.1C111.873 15.1 111.46 14.9467 111.126 14.64C110.806 14.32 110.646 13.9267 110.646 13.46C110.646 12.9933 110.806 12.6067 111.126 12.3C111.46 11.98 111.873 11.82 112.366 11.82C112.86 11.82 113.266 11.98 113.586 12.3C113.92 12.6067 114.086 12.9933 114.086 13.46C114.086 13.9267 113.92 14.32 113.586 14.64C113.266 14.9467 112.86 15.1 112.366 15.1ZM113.746 16.42V27.5H110.946V16.42H113.746ZM120.753 27.68C119.846 27.68 119.033 27.52 118.313 27.2C117.593 26.8667 117.019 26.42 116.593 25.86C116.179 25.3 115.953 24.68 115.913 24H118.733C118.786 24.4267 118.993 24.78 119.353 25.06C119.726 25.34 120.186 25.48 120.733 25.48C121.266 25.48 121.679 25.3733 121.973 25.16C122.279 24.9467 122.433 24.6733 122.433 24.34C122.433 23.98 122.246 23.7133 121.873 23.54C121.513 23.3533 120.933 23.1533 120.133 22.94C119.306 22.74 118.626 22.5333 118.093 22.32C117.573 22.1067 117.119 21.78 116.733 21.34C116.359 20.9 116.173 20.3067 116.173 19.56C116.173 18.9467 116.346 18.3867 116.693 17.88C117.053 17.3733 117.559 16.9733 118.213 16.68C118.879 16.3867 119.659 16.24 120.553 16.24C121.873 16.24 122.926 16.5733 123.713 17.24C124.499 17.8933 124.933 18.78 125.013 19.9H122.333C122.293 19.46 122.106 19.1133 121.773 18.86C121.453 18.5933 121.019 18.46 120.473 18.46C119.966 18.46 119.573 18.5533 119.293 18.74C119.026 18.9267 118.893 19.1867 118.893 19.52C118.893 19.8933 119.079 20.18 119.453 20.38C119.826 20.5667 120.406 20.76 121.193 20.96C121.993 21.16 122.653 21.3667 123.173 21.58C123.693 21.7933 124.139 22.1267 124.513 22.58C124.899 23.02 125.099 23.6067 125.113 24.34C125.113 24.98 124.933 25.5533 124.573 26.06C124.226 26.5667 123.719 26.9667 123.053 27.26C122.399 27.54 121.633 27.68 120.753 27.68ZM130.671 18.72V24.08C130.671 24.4533 130.758 24.7267 130.931 24.9C131.118 25.06 131.425 25.14 131.851 25.14H133.151V27.5H131.391C129.031 27.5 127.851 26.3533 127.851 24.06V18.72H126.531V16.42H127.851V13.68H130.671V16.42H133.151V18.72H130.671Z" fill="#76D4D6"/>
</svg>
